<svg xmlns="http://www.w3.org/2000/svg" viewBox="0 0 500 300" width="500" height="300" style="font-family:system-ui,sans-serif;background:#fff">
<text x="250.0" y="28" text-anchor="middle" font-size="15" font-weight="bold" fill="#1a1a2e">Healthcare — Score Comparison</text>
<line x1="60" y1="240" x2="470" y2="240" stroke="#e2e8f0" stroke-width="1"/>
<text x="52" y="244" text-anchor="end" font-size="11" fill="#94a3b8">0</text>
<line x1="60" y1="202" x2="470" y2="202" stroke="#e2e8f0" stroke-width="1"/>
<text x="52" y="206" text-anchor="end" font-size="11" fill="#94a3b8">20</text>
<line x1="60" y1="164" x2="470" y2="164" stroke="#e2e8f0" stroke-width="1"/>
<text x="52" y="168" text-anchor="end" font-size="11" fill="#94a3b8">40</text>
<line x1="60" y1="126" x2="470" y2="126" stroke="#e2e8f0" stroke-width="1"/>
<text x="52" y="130" text-anchor="end" font-size="11" fill="#94a3b8">60</text>
<line x1="60" y1="88" x2="470" y2="88" stroke="#e2e8f0" stroke-width="1"/>
<text x="52" y="92" text-anchor="end" font-size="11" fill="#94a3b8">80</text>
<line x1="60" y1="50" x2="470" y2="50" stroke="#e2e8f0" stroke-width="1"/>
<text x="52" y="54" text-anchor="end" font-size="11" fill="#94a3b8">100</text>
<rect x="80.5" y="107.2" width="61.5" height="132.8" rx="4" fill="#10B981"/>
<text x="111.2" y="101" text-anchor="middle" font-size="13" font-weight="bold" fill="#10B981">70</text>
<text x="111.2" y="260" text-anchor="middle" font-size="12" fill="#475569">ChatGPT CLI</text>
<rect x="183.0" y="98.1" width="61.5" height="141.9" rx="4" fill="#6C63FF"/>
<text x="213.8" y="92" text-anchor="middle" font-size="13" font-weight="bold" fill="#6C63FF">75</text>
<text x="213.8" y="260" text-anchor="middle" font-size="12" fill="#475569">GeekCode</text>
<rect x="285.5" y="116.9" width="61.5" height="123.1" rx="4" fill="#F59E0B"/>
<text x="316.2" y="111" text-anchor="middle" font-size="13" font-weight="bold" fill="#F59E0B">65</text>
<text x="316.2" y="260" text-anchor="middle" font-size="12" fill="#475569">Gemini CLI</text>
<rect x="388.0" y="111.9" width="61.5" height="128.1" rx="4" fill="#7C3AED"/>
<text x="418.8" y="106" text-anchor="middle" font-size="13" font-weight="bold" fill="#7C3AED">67</text>
<text x="418.8" y="260" text-anchor="middle" font-size="12" fill="#475569">Perplexity</text>
</svg>